<svg width="1728" height="449" viewBox="0 0 1728 449" fill="none" xmlns="http://www.w3.org/2000/svg">
<path fill-rule="evenodd" clip-rule="evenodd" d="M0 23.4621L48 14.2112C96 4.9604 192 -12.5134 288 14.2112C384 40.9358 480 111.859 576 182.782C672 253.705 768 324.628 864 333.879C960 342.102 1056 289.68 1152 271.179C1248 253.705 1344 271.179 1440 289.68C1536 307.154 1632 324.628 1680 333.879L1728 342.102V449H1680C1632 449 1536 449 1440 449C1344 449 1248 449 1152 449C1056 449 960 449 864 449C768 449 672 449 576 449C480 449 384 449 288 449C192 449 96 449 48 449H0V23.4621Z" fill="#5175FD"/>
</svg>
